<svg viewBox="0 0 120 100" xmlns="http://www.w3.org/2000/svg"><path d="M52,89 v6 M68,89 v6" stroke="#C04A4A" stroke-width="3.2" stroke-linecap="round" fill="none"/><ellipse cx="60" cy="52" rx="37" ry="38" fill="#C9A8A0" stroke="#8A6A62" stroke-width="3"/><ellipse cx="60" cy="66" rx="23" ry="22" fill="#EAD8D0"/><path d="M25,52 Q18,68 33,79 Q37,60 34,50 Z" fill="#A88A82" stroke="#8A6A62" stroke-width="2.4" stroke-linejoin="round"/><path d="M95,52 Q102,68 87,79 Q83,60 86,50 Z" fill="#A88A82" stroke="#8A6A62" stroke-width="2.4" stroke-linejoin="round"/><path d="M40,40 a3,3 0 1,0 0.1,0 M52,38 a3,3 0 1,0 0.1,0 M68,38 a3,3 0 1,0 0.1,0 M80,40 a3,3 0 1,0 0.1,0" fill="#8A6A62"/><circle cx="47" cy="48" r="8.5" fill="#fff" stroke="#8A6A62" stroke-width="2"/><circle cx="73" cy="48" r="8.5" fill="#fff" stroke="#8A6A62" stroke-width="2"/><circle cx="48" cy="49" r="4.7" fill="#241E18"/><circle cx="45.2" cy="46.5" r="1.7" fill="#fff"/><circle cx="74" cy="49" r="4.7" fill="#241E18"/><circle cx="71.2" cy="46.5" r="1.7" fill="#fff"/><path d="M54,55 L66,55 L60,63 Z" fill="#3A322C" stroke="#8A6A62" stroke-width="1.6" stroke-linejoin="round"/></svg>