<svg viewBox="0 0 120 100" xmlns="http://www.w3.org/2000/svg"><path d="M52,89 v6 M68,89 v6" stroke="#9A8A6A" stroke-width="3.2" stroke-linecap="round" fill="none"/><ellipse cx="60" cy="52" rx="37" ry="38" fill="#5FA03C" stroke="#3A5A22" stroke-width="3"/><ellipse cx="60" cy="66" rx="23" ry="22" fill="#7FB85C"/><path d="M25,52 Q18,68 33,79 Q37,60 34,50 Z" fill="#4C7E2E" stroke="#3A5A22" stroke-width="2.4" stroke-linejoin="round"/><path d="M95,52 Q102,68 87,79 Q83,60 86,50 Z" fill="#4C7E2E" stroke="#3A5A22" stroke-width="2.4" stroke-linejoin="round"/><ellipse cx="60" cy="28" rx="15" ry="8" fill="#D24B3E"/><ellipse cx="60" cy="62" rx="13" ry="7" fill="#2E6FB0"/><circle cx="40" cy="50" r="6" fill="#E8C23E"/><circle cx="80" cy="50" r="6" fill="#E8C23E"/><circle cx="47" cy="48" r="8.5" fill="#fff" stroke="#3A5A22" stroke-width="2"/><circle cx="73" cy="48" r="8.5" fill="#fff" stroke="#3A5A22" stroke-width="2"/><circle cx="48" cy="49" r="4.7" fill="#241E18"/><circle cx="45.2" cy="46.5" r="1.7" fill="#fff"/><circle cx="74" cy="49" r="4.7" fill="#241E18"/><circle cx="71.2" cy="46.5" r="1.7" fill="#fff"/><path d="M53,54 L67,54 L60,65 Z" fill="#2A2622" stroke="#3A5A22" stroke-width="1.6" stroke-linejoin="round"/></svg>