<svg viewBox="0 0 120 100" xmlns="http://www.w3.org/2000/svg"><path d="M52,89 v6 M68,89 v6" stroke="#E8B23E" stroke-width="3.2" stroke-linecap="round" fill="none"/><ellipse cx="60" cy="52" rx="37" ry="38" fill="#8A8076" stroke="#3A322C" stroke-width="3"/><ellipse cx="60" cy="66" rx="23" ry="22" fill="#EAE2D4"/><path d="M25,52 Q18,68 33,79 Q37,60 34,50 Z" fill="#6B625A" stroke="#3A322C" stroke-width="2.4" stroke-linejoin="round"/><path d="M95,52 Q102,68 87,79 Q83,60 86,50 Z" fill="#6B625A" stroke="#3A322C" stroke-width="2.4" stroke-linejoin="round"/><circle cx="47" cy="48" r="8.5" fill="#fff" stroke="#3A322C" stroke-width="2"/><circle cx="73" cy="48" r="8.5" fill="#fff" stroke="#3A322C" stroke-width="2"/><circle cx="48" cy="49" r="4.7" fill="#241E18"/><circle cx="45.2" cy="46.5" r="1.7" fill="#fff"/><circle cx="74" cy="49" r="4.7" fill="#241E18"/><circle cx="71.2" cy="46.5" r="1.7" fill="#fff"/><path d="M40,40 L56,46 L55,49 L40,44 Z" fill="#3A322C"/><path d="M80,40 L64,46 L65,49 L80,44 Z" fill="#3A322C"/><path d="M55,53 L66,53 Q71,57 65,62 Q62,57 60,60 Q57,57 55,53 Z" fill="#E8B23E" stroke="#3A322C" stroke-width="1.5" stroke-linejoin="round"/></svg>