<svg viewBox="0 0 120 100" xmlns="http://www.w3.org/2000/svg"><path d="M44,20 L33,6 L53,17 Z" fill="#C9A86A" stroke="#3A322C" stroke-width="2.2" stroke-linejoin="round"/><path d="M76,20 L87,6 L67,17 Z" fill="#C9A86A" stroke="#3A322C" stroke-width="2.2" stroke-linejoin="round"/><path d="M52,89 v6 M68,89 v6" stroke="#C9962F" stroke-width="3.2" stroke-linecap="round" fill="none"/><ellipse cx="60" cy="52" rx="37" ry="38" fill="#C9A86A" stroke="#3A322C" stroke-width="3"/><path d="M60,22 Q34,30 38,58 Q44,74 60,76 Q76,74 82,58 Q86,30 60,22 Z" fill="#F2E9D6"/><circle cx="47" cy="48" r="12" fill="#fff" stroke="#3A322C" stroke-width="2"/><circle cx="73" cy="48" r="12" fill="#fff" stroke="#3A322C" stroke-width="2"/><circle cx="48" cy="49" r="6.6" fill="#241E18"/><circle cx="45.2" cy="46.5" r="1.7" fill="#fff"/><circle cx="74" cy="49" r="6.6" fill="#241E18"/><circle cx="71.2" cy="46.5" r="1.7" fill="#fff"/><path d="M55,53 L66,53 Q71,57 65,62 Q62,57 60,60 Q57,57 55,53 Z" fill="#E8B23E" stroke="#3A322C" stroke-width="1.5" stroke-linejoin="round"/></svg>