<svg viewBox="0 0 120 100" xmlns="http://www.w3.org/2000/svg"><path d="M52,89 v6 M68,89 v6" stroke="#2A2622" stroke-width="3.2" stroke-linecap="round" fill="none"/><ellipse cx="60" cy="52" rx="37" ry="38" fill="#FDFBF5" stroke="#A39C8C" stroke-width="3"/><path d="M24,49 Q24,15 60,14 Q96,15 96,49 Q88,29 60,28 Q32,29 24,49 Z" fill="#2A2622"/><path d="M25,52 Q18,68 33,79 Q37,60 34,50 Z" fill="#ECE6D8" stroke="#A39C8C" stroke-width="2.4" stroke-linejoin="round"/><path d="M95,52 Q102,68 87,79 Q83,60 86,50 Z" fill="#ECE6D8" stroke="#A39C8C" stroke-width="2.4" stroke-linejoin="round"/><circle cx="47" cy="48" r="8.5" fill="#fff" stroke="#A39C8C" stroke-width="2"/><circle cx="73" cy="48" r="8.5" fill="#fff" stroke="#A39C8C" stroke-width="2"/><circle cx="48" cy="49" r="4.7" fill="#241E18"/><circle cx="45.2" cy="46.5" r="1.7" fill="#fff"/><circle cx="74" cy="49" r="4.7" fill="#241E18"/><circle cx="71.2" cy="46.5" r="1.7" fill="#fff"/><path d="M58,55 L62,55 Q61,70 50,80 Q47,77 56,68 Z" fill="#2A2622" stroke="#A39C8C" stroke-width="1.2" stroke-linejoin="round"/></svg>