<svg viewBox="0 0 120 100" xmlns="http://www.w3.org/2000/svg"><path d="M52,89 v6 M68,89 v6" stroke="#9AA08C" stroke-width="3.2" stroke-linecap="round" fill="none"/><ellipse cx="60" cy="52" rx="37" ry="38" fill="#5A4632" stroke="#3A322C" stroke-width="3"/><ellipse cx="60" cy="66" rx="23" ry="22" fill="#F7F4EA"/><path d="M25,52 Q18,68 33,79 Q37,60 34,50 Z" fill="#42321F" stroke="#3A322C" stroke-width="2.4" stroke-linejoin="round"/><path d="M95,52 Q102,68 87,79 Q83,60 86,50 Z" fill="#42321F" stroke="#3A322C" stroke-width="2.4" stroke-linejoin="round"/><path d="M30,30 Q60,20 90,30 Q60,28 30,30 Z" fill="#E8C23E"/><circle cx="47" cy="48" r="8.5" fill="#fff" stroke="#3A322C" stroke-width="2"/><circle cx="73" cy="48" r="8.5" fill="#fff" stroke="#3A322C" stroke-width="2"/><circle cx="48" cy="49" r="4.7" fill="#241E18"/><circle cx="45.2" cy="46.5" r="1.7" fill="#fff"/><circle cx="74" cy="49" r="4.7" fill="#241E18"/><circle cx="71.2" cy="46.5" r="1.7" fill="#fff"/><path d="M57,55 L63,55 L60,77 Z" fill="#7A8088" stroke="#3A322C" stroke-width="1.2" stroke-linejoin="round"/></svg>