<svg viewBox="0 0 120 100" xmlns="http://www.w3.org/2000/svg"><path d="M50,82 L42,99 L56,91 L60,97 L64,91 L78,99 L70,82 Z" fill="#1E2A4E" stroke="#161E3C" stroke-width="2" stroke-linejoin="round"/><path d="M52,89 v6 M68,89 v6" stroke="#3A322C" stroke-width="3.2" stroke-linecap="round" fill="none"/><ellipse cx="60" cy="52" rx="37" ry="38" fill="#2A3A6A" stroke="#161E3C" stroke-width="3"/><ellipse cx="60" cy="66" rx="23" ry="22" fill="#F2EFE4"/><path d="M25,52 Q18,68 33,79 Q37,60 34,50 Z" fill="#1E2A4E" stroke="#161E3C" stroke-width="2.4" stroke-linejoin="round"/><path d="M95,52 Q102,68 87,79 Q83,60 86,50 Z" fill="#1E2A4E" stroke="#161E3C" stroke-width="2.4" stroke-linejoin="round"/><path d="M48,58 Q60,66 72,58 Q66,66 60,67 Q54,66 48,58 Z" fill="#C0392B"/><circle cx="47" cy="48" r="8.5" fill="#fff" stroke="#161E3C" stroke-width="2"/><circle cx="73" cy="48" r="8.5" fill="#fff" stroke="#161E3C" stroke-width="2"/><circle cx="48" cy="49" r="4.7" fill="#241E18"/><circle cx="45.2" cy="46.5" r="1.7" fill="#fff"/><circle cx="74" cy="49" r="4.7" fill="#241E18"/><circle cx="71.2" cy="46.5" r="1.7" fill="#fff"/><path d="M54,55 L66,55 L60,63 Z" fill="#2A2622" stroke="#161E3C" stroke-width="1.6" stroke-linejoin="round"/></svg>