<svg viewBox="0 0 120 100" xmlns="http://www.w3.org/2000/svg"><path d="M66,74 Q90,82 96,97 Q86,92 78,88 Q70,82 66,74 Z" fill="#1E2740" stroke="#161C2C" stroke-width="2.4" stroke-linejoin="round"/><path d="M52,89 v6 M68,89 v6" stroke="#9A8A6A" stroke-width="3.2" stroke-linecap="round" fill="none"/><ellipse cx="60" cy="52" rx="37" ry="38" fill="#2A3550" stroke="#161C2C" stroke-width="3"/><ellipse cx="60" cy="66" rx="23" ry="22" fill="#3A4664"/><ellipse cx="60" cy="30" rx="29" ry="15" fill="#EDEFEF"/><path d="M25,52 Q18,68 33,79 Q37,60 34,50 Z" fill="#1E2740" stroke="#161C2C" stroke-width="2.4" stroke-linejoin="round"/><path d="M95,52 Q102,68 87,79 Q83,60 86,50 Z" fill="#1E2740" stroke="#161C2C" stroke-width="2.4" stroke-linejoin="round"/><path d="M48,58 Q60,66 72,58 Q66,66 60,67 Q54,66 48,58 Z" fill="#C0392B"/><circle cx="47" cy="48" r="8.5" fill="#fff" stroke="#161C2C" stroke-width="2"/><circle cx="73" cy="48" r="8.5" fill="#fff" stroke="#161C2C" stroke-width="2"/><circle cx="48" cy="49" r="4.7" fill="#241E18"/><circle cx="45.2" cy="46.5" r="1.7" fill="#fff"/><circle cx="74" cy="49" r="4.7" fill="#241E18"/><circle cx="71.2" cy="46.5" r="1.7" fill="#fff"/><path d="M54,55 L66,55 L60,63 Z" fill="#D9D2C2" stroke="#161C2C" stroke-width="1.6" stroke-linejoin="round"/></svg>